<?xml version="1.0" encoding="UTF-8" ?>
<!DOCTYPE svg PUBLIC "-//W3C//DTD SVG 1.1//EN" "http://www.w3.org/Graphics/SVG/1.1/DTD/svg11.dtd">
<svg width="100pt" height="100pt" viewBox="0 0 100 100" version="1.1" xmlns="http://www.w3.org/2000/svg">
<g id="#9b59b6ff">
<path fill="#9b59b6" opacity="1.00" d=" M 0.31 0.00 L 63.18 0.00 C 63.80 11.65 63.31 23.32 63.47 34.98 C 63.73 44.26 59.58 53.49 52.50 59.48 C 48.87 62.72 44.35 64.67 39.83 66.31 C 39.82 73.78 39.13 81.38 40.22 88.79 C 42.40 95.11 50.11 94.74 55.50 95.81 C 55.41 96.62 55.23 98.22 55.14 99.02 C 49.22 99.42 42.32 98.53 38.38 93.59 C 35.24 89.80 35.71 84.60 35.69 80.00 C 35.83 74.72 35.42 69.41 35.89 64.15 C 37.12 62.67 39.30 62.60 40.97 61.82 C 51.54 58.43 59.17 47.92 59.48 36.87 C 59.66 25.96 59.43 15.05 59.60 4.13 C 41.07 3.84 22.54 4.04 4.01 4.03 C 3.92 14.71 3.94 25.39 3.99 36.06 C 3.99 44.81 8.52 53.33 15.65 58.36 C 19.18 60.96 23.44 62.19 27.55 63.54 C 27.98 70.04 27.67 76.55 27.79 83.05 C 27.87 86.81 27.48 90.91 24.88 93.87 C 20.83 98.61 13.95 99.60 8.07 98.81 C 8.17 97.73 8.27 96.65 8.37 95.57 C 12.69 94.91 17.61 95.12 21.10 92.08 C 23.45 90.13 23.82 86.91 23.83 84.06 C 23.86 78.15 23.87 72.23 23.75 66.32 C 11.11 62.86 1.17 51.54 0.00 38.39 L 0.00 0.33 C 0.08 0.25 0.23 0.08 0.31 0.00 Z" />
<path fill="#9b59b6" opacity="1.00" d=" M 71.75 0.00 L 75.14 0.00 C 75.57 10.03 75.56 20.11 75.22 30.14 C 75.56 32.42 71.14 31.99 71.49 29.86 C 71.45 19.92 71.10 9.93 71.75 0.00 Z" />
<path fill="#9b59b6" opacity="1.00" d=" M 83.66 0.00 L 87.09 0.00 C 87.40 10.03 87.44 20.09 87.13 30.11 C 87.50 32.37 83.05 32.02 83.43 29.89 C 83.38 19.93 83.07 9.95 83.66 0.00 Z" />
<path fill="#9b59b6" opacity="1.00" d=" M 95.71 0.00 L 98.37 0.00 C 99.44 2.88 99.27 5.99 99.27 9.01 C 99.18 18.02 99.28 27.03 99.24 36.04 C 99.24 39.37 98.68 42.87 96.58 45.57 C 94.42 48.70 90.77 50.17 87.34 51.43 C 87.02 67.22 87.75 83.05 86.98 98.82 C 86.20 98.90 84.64 99.05 83.87 99.13 C 83.43 96.79 83.26 94.41 83.31 92.04 C 83.47 77.51 83.21 62.98 83.44 48.46 C 86.94 47.24 91.23 46.81 93.42 43.42 C 96.23 39.17 94.98 33.79 95.25 29.00 C 95.49 19.34 94.69 9.62 95.71 0.00 Z" />
</g>
</svg>
