<!DOCTYPE svg PUBLIC "-//W3C//DTD SVG 20010904//EN" "http://www.w3.org/TR/2001/REC-SVG-20010904/DTD/svg10.dtd">
<svg version="1.0" xmlns="http://www.w3.org/2000/svg" width="327px" height="147px" viewBox="0 0 3270 1470" preserveAspectRatio="xMidYMid meet">
<g id="layer101" fill="#5a5a5a" stroke="none">
 <path d="M0 735 l0 -735 1635 0 1635 0 0 735 0 735 -1635 0 -1635 0 0 -735z"/>
 </g>
<g id="layer102" fill="#6d6d6d" stroke="none">
 <path d="M0 735 l0 -735 1635 0 1635 0 0 735 0 735 -1635 0 -1635 0 0 -735z m343 320 c7 -2 40 -6 75 -9 l62 -6 0 35 c0 19 5 35 10 35 6 0 10 -18 10 -40 l0 -40 80 0 c51 0 80 -4 80 -11 0 -8 -31 -9 -102 -5 -288 17 -308 18 -308 7 0 -5 8 -15 18 -21 16 -10 16 -10 0 -20 -22 -13 -23 -30 -3 -30 20 0 19 -10 -2 -26 -17 -13 -17 -15 2 -30 19 -14 19 -16 2 -25 -30 -17 -8 -29 53 -29 32 0 62 -4 65 -10 4 -6 -20 -10 -64 -10 -41 0 -73 5 -77 11 -10 17 -8 199 2 209 5 5 23 10 39 12 25 2 31 8 34 33 l5 30 4 -28 c2 -16 9 -30 15 -32z m637 35 c5 -8 10 -25 10 -37 0 -18 6 -23 25 -23 14 0 25 -4 25 -10 0 -5 -11 -10 -24 -10 -21 0 -24 -6 -29 -52 -4 -29 -9 -63 -13 -75 -6 -21 -3 -23 30 -23 22 0 35 -4 31 -10 -3 -5 -22 -10 -41 -10 l-34 0 0 -80 c0 -47 -4 -80 -10 -80 -16 0 -12 159 5 214 18 59 20 182 3 192 -6 4 -17 -1 -24 -11 -12 -16 -14 -17 -20 -2 -3 10 -12 17 -19 17 -7 0 -16 -7 -19 -17 -6 -14 -8 -14 -21 3 -15 19 -15 19 -30 0 -13 -17 -15 -17 -21 -3 -3 10 -12 17 -20 17 -11 0 -14 -16 -14 -64 0 -36 -4 -68 -10 -71 -13 -8 -13 128 0 141 6 6 55 10 110 10 78 -1 103 -4 110 -16z m-259 -98 c-11 -39 3 -78 44 -123 35 -39 35 -40 35 -128 0 -50 -4 -93 -10 -96 -6 -4 -10 28 -10 89 0 91 -1 97 -26 119 -14 12 -32 34 -40 49 -14 27 -19 109 -8 121 14 13 22 -4 15 -31z m-26 -142 c-3 -6 -48 -10 -99 -10 -87 0 -94 -2 -117 -26 -13 -15 -39 -33 -57 -41 -39 -16 -102 -8 -102 13 0 12 4 12 20 4 31 -17 81 -2 125 35 39 34 41 34 138 35 63 0 96 -4 92 -10z m659 -41 c25 -20 26 -24 26 -130 l0 -109 -60 0 -60 0 0 30 c0 28 3 30 35 30 l35 0 0 58 c0 74 -9 87 -60 86 -35 -1 -40 1 -40 21 0 30 7 35 55 35 28 0 51 -7 69 -21z m346 6 c43 -22 60 -53 60 -108 0 -87 -46 -137 -127 -137 -107 0 -169 124 -105 210 37 50 113 65 172 35z m240 -115 l0 -130 -25 0 -25 0 0 130 0 130 25 0 25 0 0 -130z m190 54 c0 -90 5 -89 70 12 33 49 48 64 66 64 l24 0 0 -130 0 -130 -25 0 c-24 0 -25 2 -25 75 0 41 -3 75 -7 75 -5 0 -30 -34 -58 -75 -37 -57 -55 -75 -72 -75 -23 0 -23 2 -23 130 l0 130 25 0 c24 0 25 -2 25 -76z m481 47 c28 -29 29 -32 29 -130 l0 -101 -25 0 c-25 0 -25 1 -25 89 0 68 -4 93 -16 105 -18 18 -47 20 -75 6 -17 -9 -19 -22 -19 -105 l0 -95 -30 0 -30 0 0 84 c0 136 26 175 118 176 35 0 49 -6 73 -29z m221 -13 l3 -43 52 -5 c29 -3 60 -13 69 -22 21 -21 22 -94 2 -115 -18 -18 -78 -32 -135 -33 l-43 0 0 130 0 130 24 0 c22 0 25 -5 28 -42z m-2332 -116 c0 -93 1 -100 26 -123 52 -48 69 -115 40 -155 -13 -17 -14 -15 -9 23 7 53 -10 97 -48 124 -29 20 -29 21 -29 125 0 63 4 104 10 104 6 0 10 -39 10 -98z m-180 -145 c-5 -17 -10 -70 -10 -118 0 -69 3 -89 14 -89 8 0 17 7 20 17 6 14 8 14 21 -3 15 -19 15 -19 30 0 13 17 15 17 21 3 8 -22 23 -21 40 1 13 16 13 16 14 -1 0 -12 6 -17 18 -15 13 3 18 17 23 73 l5 70 2 -77 c1 -43 -1 -79 -5 -79 -36 -7 -201 -4 -210 4 -7 5 -13 22 -13 38 0 24 -4 29 -25 29 -14 0 -25 5 -25 10 0 6 11 10 25 10 22 0 25 4 25 38 0 20 3 54 6 75 l7 37 -39 0 c-47 0 -34 17 16 22 l35 3 5 80 5 80 3 -89 c1 -49 -2 -103 -8 -119z m614 113 c37 -14 33 -32 -4 -19 -39 14 -88 -2 -125 -41 -28 -30 -30 -30 -132 -30 -67 0 -102 4 -98 10 3 6 48 10 99 10 82 0 95 3 112 21 23 25 82 58 106 59 9 0 28 -4 42 -10z m99 -67 c3 -10 4 -61 3 -113 l-1 -95 -37 -3 c-35 -3 -38 -6 -38 -33 0 -16 -4 -29 -10 -29 -5 0 -10 14 -10 30 0 29 -1 30 -47 30 -27 0 -58 3 -70 6 -20 6 -23 3 -23 -24 0 -17 -4 -34 -10 -37 -6 -4 -10 10 -10 34 l0 41 -80 0 c-51 0 -80 4 -80 11 0 8 30 9 98 5 290 -18 302 -19 302 -3 0 9 -6 18 -12 21 -10 5 -10 7 0 12 15 7 16 31 1 36 -8 3 -8 10 2 26 12 20 12 24 -1 33 -11 8 -12 12 -2 16 6 2 12 11 12 19 0 11 -16 14 -65 14 -37 0 -65 4 -65 10 0 6 30 10 69 10 58 0 70 -3 74 -17z"/>
 <path d="M1610 773 c-52 -20 -69 -93 -30 -128 49 -44 130 -10 130 55 0 49 -56 90 -100 73z"/>
 <path d="M2830 660 c0 -30 1 -31 43 -28 37 3 42 6 42 28 0 22 -5 25 -42 28 -42 3 -43 2 -43 -28z"/>
 </g>
<g id="layer103" fill="#8e8e8e" stroke="none">
 <path d="M0 735 l0 -735 1635 0 1635 0 0 735 0 735 -1635 0 -1635 0 0 -735z m340 339 c0 -22 4 -24 48 -24 26 0 57 -3 70 -6 20 -6 22 -3 22 30 0 20 5 36 10 36 6 0 10 -18 10 -40 l0 -40 80 0 c51 0 80 -4 80 -11 0 -8 -31 -9 -100 -5 -55 3 -145 9 -200 12 -85 5 -100 4 -100 -9 0 -9 6 -18 13 -21 8 -3 6 -8 -7 -17 -18 -11 -18 -13 -2 -25 15 -10 15 -15 4 -33 -11 -18 -11 -23 2 -31 13 -9 13 -12 -3 -21 -30 -18 -8 -29 59 -29 36 0 64 -4 64 -10 0 -15 -136 -13 -147 3 -7 9 -10 162 -4 210 1 4 17 7 36 7 30 0 35 3 35 23 0 13 3 27 6 30 12 11 24 -3 24 -29z m638 23 c6 -5 12 -21 12 -38 0 -24 4 -29 25 -29 14 0 25 -4 25 -10 0 -5 -11 -10 -24 -10 -21 0 -24 -5 -29 -57 -3 -32 -7 -65 -8 -73 -3 -11 6 -16 29 -18 46 -5 40 -22 -8 -22 l-40 0 0 -80 c0 -47 -4 -80 -10 -80 -15 0 -12 151 5 217 18 68 20 179 3 189 -6 4 -16 0 -23 -9 -15 -21 -25 -22 -25 -2 0 20 -17 19 -29 -2 -9 -17 -11 -17 -25 2 -15 20 -15 20 -29 1 -14 -18 -15 -19 -24 -1 -19 32 -33 6 -33 -61 0 -36 -4 -64 -10 -64 -14 0 -13 133 1 147 13 13 197 13 217 0z m-256 -121 c-4 -52 -3 -56 37 -99 l41 -44 0 -97 c0 -57 -4 -96 -10 -96 -6 0 -10 37 -10 91 l0 92 -40 43 c-42 46 -55 98 -35 152 11 31 21 7 17 -42z m-22 -126 c0 -6 -40 -10 -99 -10 -86 0 -102 -3 -113 -19 -18 -26 -79 -61 -105 -61 -32 0 -75 19 -68 30 3 6 15 6 30 0 34 -13 86 4 120 40 28 30 30 30 132 30 62 0 103 -4 103 -10z m660 -40 c18 -18 20 -33 20 -130 l0 -110 -60 0 -60 0 0 30 c0 27 3 30 30 30 l31 0 -3 68 -3 67 -42 3 c-37 3 -43 6 -43 26 0 32 7 36 62 36 35 0 54 -6 68 -20z m359 -6 c61 -51 64 -150 6 -204 -34 -32 -116 -40 -161 -15 -58 31 -80 113 -49 179 21 44 60 65 122 66 41 0 58 -5 82 -26z m221 -104 l0 -130 -30 0 -30 0 0 130 0 130 30 0 30 0 0 -130z m190 60 c0 -38 3 -70 8 -70 4 0 29 32 55 70 41 60 52 70 78 70 l29 0 0 -130 0 -130 -30 0 -29 0 -3 78 -3 77 -54 -77 c-46 -67 -58 -78 -82 -78 l-29 0 0 130 0 130 30 0 30 0 0 -70z m469 55 c38 -19 51 -60 51 -161 l0 -84 -30 0 -30 0 0 85 c0 73 -3 88 -21 106 -22 22 -66 20 -81 -4 -4 -7 -8 -51 -8 -99 l0 -88 -31 0 -31 0 4 106 c3 102 4 107 31 130 33 28 101 33 146 9z m231 -24 l0 -38 51 -7 c91 -12 128 -82 76 -142 -21 -24 -32 -28 -105 -32 l-82 -5 0 132 0 131 30 0 c28 0 30 -2 30 -39z m-2330 -118 l0 -97 36 -37 c30 -30 38 -47 41 -86 4 -34 1 -52 -9 -60 -12 -10 -14 -4 -14 42 1 49 -2 57 -36 92 l-38 39 0 102 c0 61 4 102 10 102 6 0 10 -39 10 -97z m-160 -22 c0 -37 -7 -90 -15 -117 -16 -54 -20 -200 -6 -209 6 -3 14 3 20 12 9 17 11 17 25 -2 15 -19 17 -19 30 -2 16 21 26 22 26 2 0 -20 17 -19 30 3 10 16 10 16 20 0 20 -33 29 -19 32 47 4 81 22 90 26 13 5 -91 0 -96 -115 -95 -54 0 -104 4 -110 10 -7 5 -13 22 -13 38 0 24 -4 29 -24 29 -14 0 -28 5 -31 10 -4 6 5 10 20 10 30 0 31 4 39 88 l6 62 -36 0 c-21 0 -33 4 -29 10 3 6 22 10 41 10 l34 0 0 73 c0 41 3 77 6 80 16 16 24 -9 24 -72z m606 -15 c25 -19 14 -29 -18 -17 -36 14 -72 3 -117 -35 -39 -34 -40 -34 -141 -34 -65 0 -99 4 -95 10 3 6 48 10 99 10 87 0 94 2 117 26 45 49 117 68 155 40z m89 -161 l0 -110 -35 -5 c-29 -4 -36 -10 -38 -32 -4 -35 -22 -37 -22 -3 0 30 -6 32 -82 38 l-58 4 0 -34 c0 -18 -4 -33 -10 -33 -5 0 -10 18 -10 40 l0 40 -79 0 c-47 0 -83 5 -87 11 -6 11 10 11 304 -7 72 -4 102 -3 102 5 0 7 -7 14 -15 17 -8 4 -15 10 -15 15 0 5 7 9 15 9 20 0 19 26 -2 34 -14 6 -14 8 3 21 19 15 19 15 0 30 -17 13 -17 15 -3 21 10 3 17 12 17 20 0 11 -16 14 -65 14 -38 0 -65 4 -65 10 0 7 27 10 73 8 l72 -3 0 -110z"/>
 <path d="M1576 748 c-36 -51 -8 -118 49 -118 49 0 63 8 75 45 8 26 8 40 -1 57 -16 32 -28 38 -71 38 -27 0 -41 -6 -52 -22z"/>
 <path d="M2830 660 c0 -27 3 -30 34 -30 18 0 39 7 46 15 19 22 -5 45 -46 45 -31 0 -34 -3 -34 -30z"/>
 </g>
<g id="layer104" fill="#b0b0b0" stroke="none">
 <path d="M0 735 l0 -735 1635 0 1635 0 0 735 0 735 -1635 0 -1635 0 0 -735z m340 351 c0 -21 5 -24 60 -30 33 -4 63 -8 67 -9 5 -1 9 13 11 31 5 46 22 40 22 -8 l0 -40 80 0 c51 0 80 -4 80 -11 0 -11 -37 -10 -302 7 -84 5 -98 4 -98 -9 0 -9 6 -18 13 -21 10 -5 10 -7 0 -12 -15 -7 -17 -34 -3 -34 6 0 10 -7 10 -15 0 -8 -4 -15 -10 -15 -14 0 -12 -27 3 -34 10 -5 10 -7 0 -12 -7 -3 -13 -12 -13 -20 0 -11 16 -14 66 -14 48 0 65 -3 62 -12 -6 -16 -117 -22 -138 -9 -11 8 -15 34 -16 111 -1 110 7 130 52 130 19 0 24 5 24 25 0 16 6 25 15 25 9 0 15 -9 15 -24z m638 12 c6 -6 12 -23 12 -39 0 -24 4 -29 25 -29 14 0 25 -4 25 -10 0 -5 -11 -10 -25 -10 -23 0 -25 -3 -25 -51 0 -28 -5 -59 -10 -70 -10 -17 -7 -19 25 -19 24 0 35 -4 35 -15 0 -11 -11 -15 -40 -15 l-40 0 0 -80 c0 -51 -4 -80 -11 -80 -8 0 -9 33 -5 108 17 278 17 302 7 302 -6 0 -11 -7 -11 -15 0 -21 -26 -19 -35 3 -6 16 -8 16 -21 -3 -14 -19 -16 -19 -28 -3 -12 16 -14 16 -30 0 -16 -16 -18 -16 -27 1 -18 31 -29 8 -29 -59 0 -36 -4 -64 -10 -64 -11 0 -14 142 -4 152 10 10 208 6 222 -4z m-255 -102 c-8 -51 3 -83 42 -122 l35 -35 0 -100 c0 -76 -3 -100 -12 -97 -9 3 -14 34 -16 99 -3 88 -5 96 -32 124 -46 48 -66 125 -38 153 20 20 27 13 21 -22z m-23 -141 c0 -12 -17 -15 -91 -15 -89 0 -92 -1 -132 -35 -44 -38 -96 -53 -136 -39 -41 15 -26 28 28 25 44 -2 53 1 95 38 l47 41 95 0 c77 0 94 -3 94 -15z m661 -44 c22 -18 24 -28 27 -130 l4 -111 -66 0 -66 0 0 30 c0 27 3 30 30 30 l31 0 -3 68 -3 67 -42 3 c-40 3 -43 5 -43 33 0 29 1 29 54 29 38 0 61 -6 77 -19z m348 4 c40 -20 65 -77 58 -134 -4 -36 -13 -52 -41 -78 -31 -28 -43 -33 -86 -33 -28 0 -64 7 -80 15 -79 41 -80 187 -2 229 35 20 115 20 151 1z m241 -115 l0 -130 -35 0 -35 0 0 130 0 130 35 0 35 0 0 -130z m188 60 c-2 -38 -1 -70 2 -70 3 0 25 32 50 70 40 63 48 70 78 70 l32 0 0 -130 0 -130 -35 0 -34 0 -3 70 -3 70 -48 -70 c-41 -60 -52 -70 -78 -70 l-29 0 0 130 0 130 36 0 36 0 -4 -70z m479 46 c27 -23 28 -28 31 -130 l4 -106 -36 0 -36 0 0 95 c0 93 -1 96 -26 105 -29 11 -58 0 -68 -26 -3 -8 -6 -51 -6 -95 l0 -79 -30 0 -30 0 0 101 c0 98 1 101 29 130 25 25 37 29 85 29 44 0 61 -5 83 -24z m223 -15 c0 -38 0 -38 47 -45 61 -8 93 -38 93 -85 -1 -67 -40 -91 -146 -91 l-64 0 0 130 0 130 35 0 c34 0 35 -1 35 -39z m-2340 -114 c0 -88 2 -95 26 -118 14 -13 32 -36 40 -51 25 -47 14 -141 -15 -124 -7 5 -7 14 1 31 15 33 3 69 -37 114 l-35 38 0 102 c0 61 4 101 10 101 6 0 10 -38 10 -93z m-160 -24 c0 -43 -7 -100 -15 -127 -17 -54 -20 -192 -6 -201 6 -3 15 3 20 12 10 17 12 17 26 -1 15 -20 15 -20 29 0 15 19 15 19 29 0 14 -19 14 -19 25 0 11 19 11 19 26 -1 18 -25 24 -12 28 64 2 33 8 56 16 59 17 5 17 -132 0 -146 -8 -6 -59 -9 -118 -9 l-105 2 -3 38 c-3 34 -6 37 -33 37 -16 0 -29 5 -29 10 0 6 11 10 25 10 30 0 32 6 38 82 l4 57 -31 3 c-42 4 -35 22 9 26 l35 3 0 73 c0 40 3 76 7 79 17 18 23 1 23 -70z m604 -9 c9 -3 16 -12 16 -19 0 -10 -10 -12 -34 -8 -49 8 -75 -1 -121 -42 l-39 -36 -93 3 c-124 4 -126 22 -3 26 88 3 97 5 125 31 16 16 39 33 50 39 22 12 74 15 99 6z m84 -57 c16 -18 15 -212 -1 -225 -7 -6 -23 -12 -37 -14 -17 -2 -26 -10 -28 -25 -4 -30 -22 -29 -22 1 0 21 -6 24 -54 30 -30 3 -61 9 -70 12 -13 5 -16 -1 -16 -31 0 -49 -24 -42 -28 8 l-3 37 -80 0 c-50 0 -79 4 -79 11 0 11 25 10 318 -7 91 -5 113 2 75 26 -17 10 -17 10 0 20 21 13 22 30 2 30 -20 0 -19 17 3 29 16 10 16 12 -3 27 -19 14 -19 16 -2 25 30 17 8 29 -53 29 -55 0 -78 9 -63 24 12 12 130 6 141 -7z"/>
 <path d="M1586 754 c-32 -32 -28 -92 8 -116 21 -14 73 -8 89 10 23 25 22 85 -1 105 -23 21 -76 22 -96 1z"/>
 <path d="M2840 660 c0 -29 2 -31 33 -28 27 2 32 7 32 28 0 21 -5 26 -32 28 -31 3 -33 1 -33 -28z"/>
 </g>
<g id="layer105" fill="#ffffff" stroke="none">
 <path d="M0 735 l0 -735 1635 0 1635 0 0 735 0 735 -1635 0 -1635 0 0 -735z m340 350 c0 -22 4 -25 34 -25 18 0 48 -3 65 -6 29 -6 31 -5 31 25 0 47 28 41 32 -6 l3 -38 78 -5 c42 -3 78 -9 80 -15 4 -17 -146 -17 -211 0 -59 15 -192 21 -192 9 0 -4 8 -13 18 -20 16 -12 16 -13 0 -19 -10 -4 -18 -13 -18 -20 0 -7 8 -16 18 -20 16 -6 16 -7 -2 -21 -20 -14 -20 -14 0 -28 18 -14 18 -15 2 -21 -10 -4 -18 -13 -18 -21 0 -11 16 -14 65 -14 51 0 65 -3 65 -15 0 -12 -14 -15 -69 -15 -43 0 -72 5 -79 13 -13 15 -13 208 1 225 5 6 22 12 38 12 24 0 29 4 29 25 0 16 6 25 15 25 9 0 15 -9 15 -25z m638 13 c7 -7 12 -24 12 -39 0 -22 5 -28 25 -31 35 -4 36 -22 3 -26 -26 -3 -28 -7 -28 -45 0 -23 -3 -52 -6 -64 -5 -19 -1 -22 28 -25 44 -4 43 -22 -2 -26 -19 -2 -38 -9 -42 -15 -4 -7 -8 -43 -8 -80 0 -50 -3 -68 -12 -65 -20 7 -22 128 -3 190 17 58 21 208 5 208 -5 0 -10 -4 -10 -10 0 -14 -28 -12 -33 3 -3 9 -7 9 -20 -2 -14 -11 -20 -11 -34 0 -13 11 -17 11 -20 2 -3 -7 -11 -13 -18 -13 -7 0 -16 6 -18 13 -11 25 -27 -18 -27 -71 0 -75 -24 -65 -28 11 -5 92 1 97 121 97 67 0 107 -4 115 -12z m-255 -117 c-5 -47 -4 -51 36 -94 l42 -45 -3 -104 c-4 -132 -22 -133 -26 -1 -3 97 -3 98 -39 135 -27 28 -36 47 -40 82 -4 29 -1 51 7 61 22 27 29 16 23 -34z m-18 -126 c0 -6 -40 -11 -95 -13 -89 -3 -97 -5 -125 -31 -16 -16 -40 -34 -52 -40 -29 -15 -96 -14 -111 1 -22 22 -13 28 31 22 49 -7 87 8 127 50 23 26 27 27 125 24 58 -2 100 -7 100 -13z m661 -46 c22 -21 24 -29 24 -131 l0 -108 -65 0 -65 0 0 30 c0 27 3 30 30 30 l31 0 -3 68 -3 67 -47 -1 c-46 0 -48 1 -48 28 0 20 7 31 23 38 34 15 96 4 123 -21z m334 9 c52 -27 70 -56 70 -116 0 -92 -52 -137 -151 -130 -44 3 -65 10 -84 28 -70 66 -49 187 39 226 45 19 76 17 126 -8z m884 8 c56 -23 66 -48 66 -158 l0 -98 -35 0 -35 0 0 89 c0 98 -9 115 -57 109 l-28 -3 -3 -97 -3 -98 -34 0 -35 0 0 103 c0 116 10 141 63 156 46 13 63 13 101 -3z m-634 -126 l0 -130 -35 0 -35 0 0 130 0 130 35 0 35 0 0 -130z m192 64 l3 -67 45 67 c40 59 48 66 77 66 l33 0 0 -130 0 -130 -35 0 -35 0 0 71 0 71 -47 -71 c-43 -64 -50 -71 -80 -71 l-33 0 0 130 0 130 35 0 34 0 3 -66z m698 26 c0 -40 0 -40 38 -40 20 0 52 -9 70 -20 29 -18 32 -24 32 -70 0 -46 -3 -52 -32 -70 -25 -15 -51 -20 -105 -20 l-73 0 0 130 0 130 35 0 c34 0 35 -1 35 -40z m-2340 -113 c0 -90 1 -94 29 -121 39 -37 53 -74 49 -127 -2 -30 -8 -45 -19 -47 -13 -2 -15 6 -11 52 4 52 3 56 -37 99 l-41 44 0 97 c0 79 3 96 15 96 12 0 15 -17 15 -93z m-160 -27 c0 -43 -7 -105 -15 -137 -8 -31 -15 -86 -15 -120 0 -49 3 -63 15 -63 8 0 15 5 15 10 0 14 27 12 34 -2 5 -10 7 -10 12 0 7 15 31 16 36 1 3 -8 11 -8 27 2 19 11 25 11 28 2 12 -33 23 -7 23 52 0 51 3 65 15 65 12 0 15 -14 15 -68 0 -40 -5 -73 -12 -80 -16 -16 -210 -16 -226 0 -7 7 -12 25 -12 40 0 23 -4 28 -25 28 -16 0 -25 6 -25 15 0 9 9 15 24 15 21 0 24 6 29 48 2 26 8 55 12 65 6 14 2 17 -29 17 -25 0 -36 4 -36 15 0 11 11 15 40 15 l40 0 0 80 c0 64 3 80 15 80 12 0 15 -16 15 -80z m604 -6 c9 -3 16 -12 16 -19 0 -8 -14 -11 -48 -7 -45 4 -51 1 -96 -37 l-47 -41 -100 0 c-81 0 -99 3 -99 15 0 12 17 15 94 15 l95 0 46 40 c37 32 54 40 85 40 21 0 45 -3 54 -6z m87 -60 c15 -18 22 -194 9 -215 -4 -6 -23 -14 -41 -18 -25 -5 -35 -13 -37 -29 -5 -31 -32 -28 -32 3 0 22 -4 25 -34 25 -18 0 -47 3 -64 6 -29 6 -31 4 -34 -27 -4 -48 -22 -42 -26 9 l-3 42 -80 0 c-64 0 -79 3 -79 15 0 20 131 20 215 0 69 -17 185 -20 185 -5 0 6 -4 10 -10 10 -5 0 -10 7 -10 15 0 8 5 15 10 15 6 0 10 7 10 15 0 8 -4 15 -10 15 -14 0 -12 27 3 34 10 5 10 7 0 12 -18 8 -16 31 3 38 32 12 0 26 -62 26 -59 0 -74 6 -57 23 3 4 34 7 68 7 46 0 66 -4 76 -16z"/>
 <path d="M1587 752 c-23 -25 -22 -85 1 -105 44 -40 112 -8 112 53 0 62 -74 96 -113 52z"/>
 <path d="M2840 660 c0 -29 2 -31 33 -28 27 2 32 7 32 28 0 21 -5 26 -32 28 -31 3 -33 1 -33 -28z"/>
 </g>

</svg>