<?xml version="1.0" encoding="UTF-8" ?>
<!DOCTYPE svg PUBLIC "-//W3C//DTD SVG 1.1//EN" "http://www.w3.org/Graphics/SVG/1.1/DTD/svg11.dtd">
<svg width="320pt" height="169pt" viewBox="0 0 320 169" version="1.1" xmlns="http://www.w3.org/2000/svg">
<g id="#ffffffff">
<path fill="#ffffff" opacity="1.00" d=" M 0.00 0.00 L 320.00 0.00 L 320.00 169.00 L 0.00 169.00 L 0.00 0.00 M 21.28 57.11 C 17.30 70.96 23.21 85.08 29.87 97.07 C 38.55 112.37 46.94 127.83 55.87 142.99 C 64.39 128.14 72.59 113.11 81.21 98.31 C 87.67 87.25 93.11 74.54 91.33 61.46 C 89.10 44.45 73.05 30.72 55.94 30.91 C 40.23 30.65 25.35 41.94 21.28 57.11 M 125.26 68.25 C 127.16 77.15 125.93 86.29 126.28 95.30 C 125.40 96.32 124.54 97.34 123.68 98.38 C 120.76 98.29 117.83 98.29 114.91 98.11 C 115.51 100.62 116.08 103.14 116.69 105.65 C 120.38 105.68 124.10 106.04 127.77 105.57 C 130.65 104.17 132.55 101.39 134.83 99.23 C 134.63 91.84 134.76 84.45 134.67 77.06 C 134.60 74.09 135.04 71.14 135.69 68.25 C 132.21 68.24 128.73 68.23 125.26 68.25 M 143.44 75.71 C 143.57 83.25 143.55 90.79 143.43 98.34 C 145.72 100.83 148.08 103.24 150.47 105.63 C 153.99 105.69 157.51 105.88 161.03 105.76 C 165.86 106.34 168.29 101.44 171.50 98.79 C 171.65 90.94 171.67 83.08 171.48 75.24 C 169.16 72.99 166.91 70.68 164.73 68.31 C 160.16 68.33 155.57 67.99 151.01 68.40 C 147.95 70.14 145.87 73.21 143.44 75.71 M 180.32 68.18 C 180.80 80.68 180.90 93.21 180.27 105.71 C 183.45 105.72 186.64 105.72 189.83 105.71 C 188.96 93.21 189.14 80.62 189.74 68.10 C 186.60 68.21 183.46 68.24 180.32 68.18 M 198.50 68.31 C 199.13 70.81 199.64 73.36 199.56 75.96 C 199.33 85.88 199.84 95.80 199.15 105.71 C 202.01 105.72 204.87 105.71 207.73 105.72 C 205.77 97.71 207.00 89.38 206.80 81.23 C 210.39 89.56 214.95 97.42 218.78 105.64 C 221.10 105.67 223.42 105.72 225.74 105.74 C 225.83 95.85 225.71 85.97 225.76 76.08 C 225.76 73.44 226.21 70.82 226.87 68.28 C 223.98 68.28 221.09 68.22 218.21 68.25 C 218.81 74.66 218.67 81.10 218.40 87.52 C 215.26 81.25 212.18 74.96 209.10 68.67 C 205.68 67.75 202.01 68.41 198.50 68.31 M 235.14 68.28 C 236.82 78.39 236.41 88.77 235.53 98.94 C 237.82 101.11 240.05 103.35 242.21 105.65 C 246.82 105.65 251.45 105.98 256.05 105.61 C 258.54 103.91 260.44 101.50 262.68 99.50 C 263.25 89.11 261.55 78.52 263.73 68.28 C 260.52 68.26 257.31 68.23 254.11 68.23 C 254.57 76.81 254.47 85.41 254.36 94.01 C 254.39 95.54 253.73 96.95 253.22 98.36 C 250.83 98.34 248.41 98.58 246.05 98.10 C 244.19 96.67 244.47 94.12 244.40 92.05 C 244.57 84.11 244.12 76.15 244.87 68.23 C 241.63 68.22 238.38 68.24 235.14 68.28 M 272.13 68.23 C 272.79 80.71 272.83 93.24 272.14 105.72 C 275.38 105.73 278.63 105.73 281.87 105.71 C 280.96 101.24 280.57 96.68 280.59 92.11 C 284.65 91.66 288.73 91.68 292.80 91.73 C 294.95 89.26 297.25 86.91 299.72 84.77 C 300.01 81.54 300.68 78.21 299.80 75.02 C 298.20 72.37 295.68 70.47 293.56 68.27 C 286.41 68.24 279.27 68.28 272.13 68.23 Z" />
<path fill="#ffffff" opacity="1.00" d=" M 49.50 40.63 C 53.22 39.85 57.10 39.91 60.86 40.40 C 72.89 42.40 82.54 53.72 82.66 65.92 C 82.76 76.08 78.13 85.50 73.13 94.09 C 67.63 104.10 61.64 113.86 56.58 124.10 C 53.75 122.55 52.79 119.31 51.20 116.71 C 46.71 108.84 42.28 100.92 37.93 92.96 C 33.33 84.68 28.75 75.74 29.08 65.99 C 28.84 54.13 38.17 43.34 49.50 40.63 M 53.25 46.14 C 48.23 47.95 48.51 55.87 53.33 57.73 C 56.18 59.35 59.45 57.45 61.42 55.32 C 62.11 53.01 61.68 50.53 61.74 48.15 C 59.23 46.70 56.20 44.37 53.25 46.14 M 40.61 54.48 C 40.19 56.69 38.60 59.44 40.78 61.23 C 42.58 63.53 45.46 62.13 47.71 61.52 C 47.64 59.56 48.08 57.51 47.40 55.63 C 45.86 53.34 42.88 54.50 40.61 54.48 M 64.11 56.20 C 62.57 58.73 64.32 62.20 67.16 62.65 C 68.75 62.51 70.23 61.86 71.75 61.41 C 71.80 58.96 71.54 56.51 70.72 54.18 C 68.47 54.54 65.01 53.32 64.11 56.20 M 45.80 69.06 C 45.27 75.13 45.68 81.24 46.33 87.28 C 52.76 87.27 59.19 87.26 65.61 87.29 C 65.69 81.15 65.87 75.00 65.71 68.86 C 65.52 64.25 61.53 60.23 56.98 59.75 C 51.55 59.05 46.21 63.66 45.80 69.06 M 66.02 64.15 C 67.85 70.47 67.09 77.08 67.38 83.55 C 69.80 83.36 72.23 83.17 74.64 82.91 C 74.64 78.06 74.58 73.21 74.55 68.36 C 73.20 67.03 71.97 65.56 70.42 64.47 C 68.97 64.17 67.48 64.23 66.02 64.15 M 37.31 69.96 C 37.05 74.25 37.27 78.55 37.22 82.85 C 39.70 82.84 42.17 82.80 44.65 82.78 C 44.70 76.58 43.85 70.27 45.59 64.21 C 43.99 64.26 42.39 64.28 40.79 64.28 C 39.45 66.03 37.31 67.55 37.31 69.96 Z" />
<path fill="#ffffff" opacity="1.00" d=" M 152.50 76.45 C 155.22 73.79 159.21 74.56 162.48 75.54 C 162.87 82.55 163.27 89.64 162.45 96.63 C 160.80 99.86 156.54 98.36 153.65 98.47 C 152.42 96.55 152.06 94.30 152.20 92.05 C 152.38 86.85 151.92 81.62 152.50 76.45 Z" />
<path fill="#ffffff" opacity="1.00" d=" M 280.52 74.55 C 283.56 74.55 286.78 74.18 289.64 75.47 C 292.08 76.98 292.23 80.59 290.93 82.88 C 288.24 85.61 284.05 84.92 280.59 85.33 C 280.48 81.74 280.46 78.14 280.52 74.55 Z" />
</g>
<g id="#26cfc4ff">
<path fill="#26cfc4" opacity="1.00" d=" M 21.28 57.11 C 25.35 41.94 40.23 30.65 55.94 30.91 C 73.05 30.72 89.10 44.45 91.33 61.46 C 93.11 74.54 87.67 87.25 81.21 98.31 C 72.59 113.11 64.39 128.14 55.87 142.99 C 46.94 127.83 38.55 112.37 29.87 97.07 C 23.21 85.08 17.30 70.96 21.28 57.11 M 49.50 40.63 C 38.17 43.34 28.84 54.13 29.08 65.99 C 28.75 75.74 33.33 84.68 37.93 92.96 C 42.28 100.92 46.71 108.84 51.20 116.71 C 52.79 119.31 53.75 122.55 56.58 124.10 C 61.64 113.86 67.63 104.10 73.13 94.09 C 78.13 85.50 82.76 76.08 82.66 65.92 C 82.54 53.72 72.89 42.40 60.86 40.40 C 57.10 39.91 53.22 39.85 49.50 40.63 Z" />
<path fill="#26cfc4" opacity="1.00" d=" M 53.25 46.14 C 56.20 44.37 59.23 46.70 61.74 48.15 C 61.68 50.53 62.11 53.01 61.42 55.32 C 59.45 57.45 56.18 59.35 53.33 57.73 C 48.51 55.87 48.23 47.95 53.25 46.14 Z" />
<path fill="#26cfc4" opacity="1.00" d=" M 40.61 54.48 C 42.88 54.50 45.86 53.34 47.40 55.63 C 48.08 57.51 47.64 59.56 47.71 61.52 C 45.46 62.13 42.58 63.53 40.78 61.23 C 38.60 59.44 40.19 56.69 40.61 54.48 Z" />
<path fill="#26cfc4" opacity="1.00" d=" M 64.11 56.20 C 65.01 53.32 68.47 54.54 70.72 54.18 C 71.54 56.51 71.80 58.96 71.75 61.41 C 70.23 61.86 68.75 62.51 67.16 62.65 C 64.32 62.20 62.57 58.73 64.11 56.20 Z" />
<path fill="#26cfc4" opacity="1.00" d=" M 45.80 69.06 C 46.21 63.66 51.55 59.05 56.98 59.75 C 61.53 60.23 65.52 64.25 65.71 68.86 C 65.87 75.00 65.69 81.15 65.61 87.29 C 59.19 87.26 52.76 87.27 46.33 87.28 C 45.68 81.24 45.27 75.13 45.80 69.06 Z" />
<path fill="#26cfc4" opacity="1.00" d=" M 66.02 64.15 C 67.48 64.23 68.97 64.17 70.42 64.47 C 71.97 65.56 73.20 67.03 74.55 68.36 C 74.58 73.21 74.64 78.06 74.64 82.91 C 72.23 83.17 69.80 83.36 67.38 83.55 C 67.09 77.08 67.85 70.47 66.02 64.15 Z" />
<path fill="#26cfc4" opacity="1.00" d=" M 37.31 69.96 C 37.31 67.55 39.45 66.03 40.79 64.28 C 42.39 64.28 43.99 64.26 45.59 64.21 C 43.85 70.27 44.70 76.58 44.65 82.78 C 42.17 82.80 39.70 82.84 37.22 82.85 C 37.27 78.55 37.05 74.25 37.31 69.96 Z" />
<path fill="#26cfc4" opacity="1.00" d=" M 125.26 68.25 C 128.73 68.23 132.21 68.24 135.69 68.25 C 135.04 71.14 134.60 74.09 134.67 77.06 C 134.76 84.45 134.63 91.84 134.83 99.23 C 132.55 101.39 130.65 104.17 127.77 105.57 C 124.10 106.04 120.38 105.68 116.69 105.65 C 116.08 103.14 115.51 100.62 114.91 98.11 C 117.83 98.29 120.76 98.29 123.68 98.38 C 124.54 97.34 125.40 96.32 126.28 95.30 C 125.93 86.29 127.16 77.15 125.26 68.25 Z" />
<path fill="#26cfc4" opacity="1.00" d=" M 143.44 75.71 C 145.87 73.21 147.95 70.14 151.01 68.40 C 155.57 67.99 160.16 68.33 164.73 68.31 C 166.91 70.68 169.16 72.99 171.48 75.24 C 171.67 83.08 171.65 90.94 171.50 98.79 C 168.29 101.44 165.86 106.34 161.03 105.76 C 157.51 105.88 153.99 105.69 150.47 105.63 C 148.08 103.24 145.72 100.83 143.43 98.34 C 143.55 90.79 143.57 83.25 143.44 75.71 M 152.50 76.45 C 151.92 81.62 152.38 86.85 152.20 92.05 C 152.06 94.30 152.42 96.55 153.65 98.47 C 156.54 98.36 160.80 99.86 162.45 96.63 C 163.27 89.64 162.87 82.55 162.48 75.54 C 159.21 74.56 155.22 73.79 152.50 76.45 Z" />
<path fill="#26cfc4" opacity="1.00" d=" M 180.32 68.18 C 183.46 68.24 186.60 68.21 189.74 68.10 C 189.14 80.62 188.96 93.21 189.83 105.71 C 186.64 105.72 183.45 105.72 180.27 105.71 C 180.90 93.21 180.80 80.68 180.32 68.18 Z" />
<path fill="#26cfc4" opacity="1.00" d=" M 198.50 68.31 C 202.01 68.41 205.68 67.75 209.10 68.67 C 212.18 74.96 215.26 81.25 218.40 87.52 C 218.67 81.10 218.81 74.66 218.21 68.25 C 221.09 68.22 223.98 68.28 226.87 68.28 C 226.21 70.82 225.76 73.44 225.76 76.08 C 225.71 85.97 225.83 95.85 225.74 105.74 C 223.42 105.72 221.10 105.67 218.78 105.64 C 214.95 97.42 210.39 89.56 206.80 81.23 C 207.00 89.38 205.77 97.71 207.73 105.72 C 204.87 105.71 202.01 105.72 199.15 105.71 C 199.84 95.80 199.33 85.88 199.56 75.96 C 199.64 73.36 199.13 70.81 198.50 68.31 Z" />
<path fill="#26cfc4" opacity="1.00" d=" M 235.14 68.28 C 238.38 68.24 241.63 68.22 244.87 68.23 C 244.12 76.15 244.57 84.11 244.40 92.05 C 244.47 94.12 244.19 96.67 246.05 98.10 C 248.41 98.58 250.83 98.34 253.22 98.36 C 253.73 96.95 254.39 95.54 254.36 94.01 C 254.47 85.41 254.57 76.81 254.11 68.23 C 257.31 68.23 260.52 68.26 263.73 68.28 C 261.55 78.52 263.25 89.11 262.68 99.50 C 260.44 101.50 258.54 103.91 256.05 105.61 C 251.45 105.98 246.82 105.65 242.21 105.65 C 240.05 103.35 237.82 101.11 235.53 98.94 C 236.41 88.77 236.82 78.39 235.14 68.28 Z" />
<path fill="#26cfc4" opacity="1.00" d=" M 272.13 68.23 C 279.27 68.28 286.41 68.24 293.56 68.27 C 295.68 70.47 298.20 72.37 299.80 75.02 C 300.68 78.21 300.01 81.54 299.72 84.77 C 297.25 86.91 294.95 89.26 292.80 91.73 C 288.73 91.68 284.65 91.66 280.59 92.11 C 280.57 96.68 280.96 101.24 281.87 105.71 C 278.63 105.73 275.38 105.73 272.14 105.72 C 272.83 93.24 272.79 80.71 272.13 68.23 M 280.52 74.55 C 280.46 78.14 280.48 81.74 280.59 85.33 C 284.05 84.92 288.24 85.61 290.93 82.88 C 292.23 80.59 292.08 76.98 289.64 75.47 C 286.78 74.18 283.56 74.55 280.52 74.55 Z" />
</g>
</svg>
