<svg xmlns="http://www.w3.org/2000/svg" width="320" height="169" version="1.1"><rect id="backgroundrect" width="100%" height="100%" x="0" y="0" fill="none" stroke="none"/>


<g class="currentLayer" style=""><title>Layer 1</title><g id="#ffffffff" class="" fill="#25cfc4" fill-opacity="1">
<path fill="#25cfc4" opacity="1.00" d="M0.7692307829856873,0 L320.7692307829857,0 L320.7692307829857,169 L0.7692307829856873,169 L0.7692307829856873,0 M22.04923078298569,57.11 C18.069230782985688,70.96 23.979230782985688,85.08 30.63923078298569,97.07 C39.319230782985684,112.37 47.709230782985685,127.83 56.639230782985685,142.99 C65.15923078298569,128.14 73.35923078298569,113.11 81.97923078298568,98.31 C88.43923078298569,87.25 93.87923078298569,74.54 92.09923078298569,61.46 C89.86923078298568,44.45 73.81923078298568,30.72 56.709230782985685,30.91 C40.999230782985684,30.65 26.11923078298569,41.94 22.04923078298569,57.11 M126.02923078298569,68.25 C127.92923078298568,77.15 126.6992307829857,86.29 127.04923078298569,95.3 C126.1692307829857,96.32 125.3092307829857,97.34 124.4492307829857,98.38 C121.52923078298569,98.29 118.59923078298569,98.29 115.67923078298568,98.11 C116.27923078298569,100.62 116.84923078298569,103.14 117.45923078298568,105.65 C121.14923078298568,105.68 124.86923078298568,106.04 128.53923078298567,105.57 C131.4192307829857,104.17 133.3192307829857,101.39 135.5992307829857,99.23 C135.39923078298568,91.84 135.52923078298568,84.45 135.43923078298567,77.06 C135.36923078298568,74.09 135.80923078298568,71.14 136.45923078298568,68.25 C132.9792307829857,68.24 129.49923078298568,68.23 126.02923078298569,68.25 M144.20923078298568,75.71 C144.33923078298568,83.25 144.3192307829857,90.79 144.1992307829857,98.34 C146.4892307829857,100.83 148.8492307829857,103.24 151.2392307829857,105.63 C154.7592307829857,105.69 158.27923078298568,105.88 161.7992307829857,105.76 C166.6292307829857,106.34 169.05923078298568,101.44 172.2692307829857,98.79 C172.4192307829857,90.94 172.43923078298567,83.08 172.24923078298568,75.24 C169.92923078298568,72.99 167.67923078298568,70.68 165.49923078298568,68.31 C160.92923078298568,68.33 156.33923078298568,67.99 151.77923078298568,68.4 C148.71923078298568,70.14 146.6392307829857,73.21 144.20923078298568,75.71 M181.08923078298568,68.18 C181.5692307829857,80.68 181.6692307829857,93.21 181.0392307829857,105.71 C184.21923078298568,105.72 187.40923078298567,105.72 190.5992307829857,105.71 C189.7292307829857,93.21 189.90923078298567,80.62 190.5092307829857,68.1 C187.36923078298568,68.21 184.2292307829857,68.24 181.08923078298568,68.18 M199.2692307829857,68.31 C199.89923078298568,70.81 200.40923078298567,73.36 200.3292307829857,75.96 C200.0992307829857,85.88 200.6092307829857,95.8 199.9192307829857,105.71 C202.77923078298568,105.72 205.6392307829857,105.71 208.49923078298568,105.72 C206.5392307829857,97.71 207.7692307829857,89.38 207.5692307829857,81.23 C211.15923078298567,89.56 215.71923078298568,97.42 219.5492307829857,105.64 C221.86923078298568,105.67 224.18923078298567,105.72 226.5092307829857,105.74 C226.5992307829857,95.85 226.4792307829857,85.97 226.52923078298568,76.08 C226.52923078298568,73.44 226.9792307829857,70.82 227.6392307829857,68.28 C224.74923078298568,68.28 221.8592307829857,68.22 218.9792307829857,68.25 C219.5792307829857,74.66 219.43923078298567,81.1 219.1692307829857,87.52 C216.02923078298568,81.25 212.9492307829857,74.96 209.86923078298568,68.67 C206.4492307829857,67.75 202.77923078298568,68.41 199.2692307829857,68.31 M235.90923078298567,68.28 C237.58923078298568,78.39 237.17923078298568,88.77 236.2992307829857,98.94 C238.58923078298568,101.11 240.8192307829857,103.35 242.9792307829857,105.65 C247.58923078298568,105.65 252.21923078298568,105.98 256.8192307829857,105.61 C259.3092307829857,103.91 261.2092307829857,101.5 263.4492307829857,99.5 C264.0192307829857,89.11 262.3192307829857,78.52 264.4992307829857,68.28 C261.28923078298567,68.26 258.0792307829857,68.23 254.8792307829857,68.23 C255.33923078298568,76.81 255.2392307829857,85.41 255.1292307829857,94.01 C255.15923078298567,95.54 254.49923078298568,96.95 253.9892307829857,98.36 C251.5992307829857,98.34 249.17923078298568,98.58 246.8192307829857,98.1 C244.95923078298568,96.67 245.2392307829857,94.12 245.1692307829857,92.05 C245.33923078298568,84.11 244.8892307829857,76.15 245.6392307829857,68.23 C242.39923078298568,68.22 239.14923078298568,68.24 235.90923078298567,68.28 M272.8992307829857,68.23 C273.5592307829857,80.71 273.59923078298567,93.24 272.9092307829857,105.72 C276.1492307829857,105.73 279.3992307829857,105.73 282.6392307829857,105.71 C281.72923078298567,101.24 281.3392307829857,96.68 281.35923078298566,92.11 C285.41923078298566,91.66 289.4992307829857,91.68 293.5692307829857,91.73 C295.7192307829857,89.26 298.0192307829857,86.91 300.4892307829857,84.77 C300.7792307829857,81.54 301.4492307829857,78.21 300.5692307829857,75.02 C298.9692307829857,72.37 296.4492307829857,70.47 294.3292307829857,68.27 C287.1792307829857,68.24 280.03923078298567,68.28 272.8992307829857,68.23 z" id="svg_1" fill-opacity="1"/>
<path fill="#25cfc4" opacity="1.00" d="M50.26923078298569,40.63 C53.989230782985686,39.85 57.86923078298569,39.91 61.62923078298569,40.4 C73.65923078298569,42.4 83.3092307829857,53.72 83.42923078298568,65.92 C83.52923078298569,76.08 78.89923078298568,85.5 73.89923078298568,94.09 C68.39923078298568,104.1 62.40923078298569,113.86 57.349230782985686,124.1 C54.51923078298569,122.55 53.559230782985686,119.31 51.96923078298569,116.71 C47.47923078298569,108.84 43.04923078298569,100.92 38.69923078298569,92.96 C34.099230782985686,84.68 29.519230782985687,75.74 29.849230782985686,65.99 C29.609230782985687,54.13 38.93923078298569,43.34 50.26923078298569,40.63 M54.01923078298569,46.14 C48.999230782985684,47.95 49.279230782985685,55.87 54.099230782985686,57.73 C56.94923078298569,59.35 60.21923078298569,57.45 62.18923078298569,55.32 C62.87923078298569,53.01 62.44923078298569,50.53 62.50923078298569,48.15 C59.999230782985684,46.7 56.96923078298569,44.37 54.01923078298569,46.14 M41.37923078298569,54.48 C40.959230782985685,56.69 39.36923078298569,59.44 41.54923078298569,61.23 C43.349230782985686,63.53 46.22923078298569,62.13 48.47923078298569,61.52 C48.40923078298569,59.56 48.849230782985686,57.51 48.169230782985686,55.63 C46.62923078298569,53.34 43.64923078298569,54.5 41.37923078298569,54.48 M64.87923078298569,56.2 C63.33923078298569,58.73 65.08923078298568,62.2 67.92923078298568,62.65 C69.51923078298569,62.51 70.99923078298569,61.86 72.51923078298569,61.41 C72.56923078298568,58.96 72.3092307829857,56.51 71.48923078298569,54.18 C69.23923078298569,54.54 65.77923078298569,53.32 64.87923078298569,56.2 M46.569230782985684,69.06 C46.03923078298569,75.13 46.44923078298569,81.24 47.099230782985686,87.28 C53.529230782985685,87.27 59.959230782985685,87.26 66.37923078298569,87.29 C66.45923078298568,81.15 66.63923078298569,75 66.47923078298568,68.86 C66.28923078298568,64.25 62.29923078298569,60.23 57.749230782985684,59.75 C52.319230782985684,59.05 46.97923078298569,63.66 46.569230782985684,69.06 M66.78923078298568,64.15 C68.61923078298568,70.47 67.85923078298569,77.08 68.14923078298568,83.55 C70.56923078298568,83.36 72.99923078298569,83.17 75.40923078298569,82.91 C75.40923078298569,78.06 75.34923078298569,73.21 75.31923078298568,68.36 C73.96923078298569,67.03 72.73923078298569,65.56 71.18923078298569,64.47 C69.73923078298569,64.17 68.24923078298569,64.23 66.78923078298568,64.15 M38.07923078298569,69.96 C37.819230782985684,74.25 38.03923078298569,78.55 37.989230782985686,82.85 C40.46923078298569,82.84 42.93923078298569,82.8 45.419230782985686,82.78 C45.46923078298569,76.58 44.61923078298569,70.27 46.35923078298569,64.21 C44.75923078298569,64.26 43.15923078298569,64.28 41.559230782985686,64.28 C40.21923078298569,66.03 38.07923078298569,67.55 38.07923078298569,69.96 z" id="svg_2" fill-opacity="1"/>
<path fill="#25cfc4" opacity="1.00" d="M153.2692307829857,76.45 C155.9892307829857,73.79 159.9792307829857,74.56 163.24923078298568,75.54 C163.6392307829857,82.55 164.0392307829857,89.64 163.21923078298568,96.63 C161.5692307829857,99.86 157.30923078298568,98.36 154.4192307829857,98.47 C153.18923078298567,96.55 152.8292307829857,94.3 152.96923078298568,92.05 C153.14923078298568,86.85 152.68923078298567,81.62 153.2692307829857,76.45 z" id="svg_3" fill-opacity="1"/>
<path fill="#25cfc4" opacity="1.00" d="M281.28923078298567,74.55 C284.3292307829857,74.55 287.54923078298566,74.18 290.4092307829857,75.47 C292.84923078298567,76.98 292.9992307829857,80.59 291.6992307829857,82.88 C289.0092307829857,85.61 284.8192307829857,84.92 281.35923078298566,85.33 C281.2492307829857,81.74 281.22923078298567,78.14 281.28923078298567,74.55 z" id="svg_4" fill-opacity="1"/>
</g><g id="#26cfc4ff" class="" opacity="1" fill="#ffffff" fill-opacity="1">
<path fill="#ffffff" opacity="1" d=" M 21.28 57.11 C 25.35 41.94 40.23 30.65 55.94 30.91 C 73.05 30.72 89.10 44.45 91.33 61.46 C 93.11 74.54 87.67 87.25 81.21 98.31 C 72.59 113.11 64.39 128.14 55.87 142.99 C 46.94 127.83 38.55 112.37 29.87 97.07 C 23.21 85.08 17.30 70.96 21.28 57.11 M 49.50 40.63 C 38.17 43.34 28.84 54.13 29.08 65.99 C 28.75 75.74 33.33 84.68 37.93 92.96 C 42.28 100.92 46.71 108.84 51.20 116.71 C 52.79 119.31 53.75 122.55 56.58 124.10 C 61.64 113.86 67.63 104.10 73.13 94.09 C 78.13 85.50 82.76 76.08 82.66 65.92 C 82.54 53.72 72.89 42.40 60.86 40.40 C 57.10 39.91 53.22 39.85 49.50 40.63 Z" id="svg_5" fill-opacity="1"/>
<path fill="#ffffff" opacity="1" d=" M 53.25 46.14 C 56.20 44.37 59.23 46.70 61.74 48.15 C 61.68 50.53 62.11 53.01 61.42 55.32 C 59.45 57.45 56.18 59.35 53.33 57.73 C 48.51 55.87 48.23 47.95 53.25 46.14 Z" id="svg_6" fill-opacity="1"/>
<path fill="#ffffff" opacity="1" d=" M 40.61 54.48 C 42.88 54.50 45.86 53.34 47.40 55.63 C 48.08 57.51 47.64 59.56 47.71 61.52 C 45.46 62.13 42.58 63.53 40.78 61.23 C 38.60 59.44 40.19 56.69 40.61 54.48 Z" id="svg_7" fill-opacity="1"/>
<path fill="#ffffff" opacity="1" d=" M 64.11 56.20 C 65.01 53.32 68.47 54.54 70.72 54.18 C 71.54 56.51 71.80 58.96 71.75 61.41 C 70.23 61.86 68.75 62.51 67.16 62.65 C 64.32 62.20 62.57 58.73 64.11 56.20 Z" id="svg_8" fill-opacity="1"/>
<path fill="#ffffff" opacity="1" d=" M 45.80 69.06 C 46.21 63.66 51.55 59.05 56.98 59.75 C 61.53 60.23 65.52 64.25 65.71 68.86 C 65.87 75.00 65.69 81.15 65.61 87.29 C 59.19 87.26 52.76 87.27 46.33 87.28 C 45.68 81.24 45.27 75.13 45.80 69.06 Z" id="svg_9" fill-opacity="1"/>
<path fill="#ffffff" opacity="1" d=" M 66.02 64.15 C 67.48 64.23 68.97 64.17 70.42 64.47 C 71.97 65.56 73.20 67.03 74.55 68.36 C 74.58 73.21 74.64 78.06 74.64 82.91 C 72.23 83.17 69.80 83.36 67.38 83.55 C 67.09 77.08 67.85 70.47 66.02 64.15 Z" id="svg_10" fill-opacity="1"/>
<path fill="#ffffff" opacity="1" d=" M 37.31 69.96 C 37.31 67.55 39.45 66.03 40.79 64.28 C 42.39 64.28 43.99 64.26 45.59 64.21 C 43.85 70.27 44.70 76.58 44.65 82.78 C 42.17 82.80 39.70 82.84 37.22 82.85 C 37.27 78.55 37.05 74.25 37.31 69.96 Z" id="svg_11" fill-opacity="1"/>
<path fill="#ffffff" opacity="1" d=" M 125.26 68.25 C 128.73 68.23 132.21 68.24 135.69 68.25 C 135.04 71.14 134.60 74.09 134.67 77.06 C 134.76 84.45 134.63 91.84 134.83 99.23 C 132.55 101.39 130.65 104.17 127.77 105.57 C 124.10 106.04 120.38 105.68 116.69 105.65 C 116.08 103.14 115.51 100.62 114.91 98.11 C 117.83 98.29 120.76 98.29 123.68 98.38 C 124.54 97.34 125.40 96.32 126.28 95.30 C 125.93 86.29 127.16 77.15 125.26 68.25 Z" id="svg_12" fill-opacity="1"/>
<path fill="#ffffff" opacity="1" d=" M 143.44 75.71 C 145.87 73.21 147.95 70.14 151.01 68.40 C 155.57 67.99 160.16 68.33 164.73 68.31 C 166.91 70.68 169.16 72.99 171.48 75.24 C 171.67 83.08 171.65 90.94 171.50 98.79 C 168.29 101.44 165.86 106.34 161.03 105.76 C 157.51 105.88 153.99 105.69 150.47 105.63 C 148.08 103.24 145.72 100.83 143.43 98.34 C 143.55 90.79 143.57 83.25 143.44 75.71 M 152.50 76.45 C 151.92 81.62 152.38 86.85 152.20 92.05 C 152.06 94.30 152.42 96.55 153.65 98.47 C 156.54 98.36 160.80 99.86 162.45 96.63 C 163.27 89.64 162.87 82.55 162.48 75.54 C 159.21 74.56 155.22 73.79 152.50 76.45 Z" id="svg_13" fill-opacity="1"/>
<path fill="#ffffff" opacity="1" d=" M 180.32 68.18 C 183.46 68.24 186.60 68.21 189.74 68.10 C 189.14 80.62 188.96 93.21 189.83 105.71 C 186.64 105.72 183.45 105.72 180.27 105.71 C 180.90 93.21 180.80 80.68 180.32 68.18 Z" id="svg_14" fill-opacity="1"/>
<path fill="#ffffff" opacity="1" d=" M 198.50 68.31 C 202.01 68.41 205.68 67.75 209.10 68.67 C 212.18 74.96 215.26 81.25 218.40 87.52 C 218.67 81.10 218.81 74.66 218.21 68.25 C 221.09 68.22 223.98 68.28 226.87 68.28 C 226.21 70.82 225.76 73.44 225.76 76.08 C 225.71 85.97 225.83 95.85 225.74 105.74 C 223.42 105.72 221.10 105.67 218.78 105.64 C 214.95 97.42 210.39 89.56 206.80 81.23 C 207.00 89.38 205.77 97.71 207.73 105.72 C 204.87 105.71 202.01 105.72 199.15 105.71 C 199.84 95.80 199.33 85.88 199.56 75.96 C 199.64 73.36 199.13 70.81 198.50 68.31 Z" id="svg_15" fill-opacity="1"/>
<path fill="#ffffff" opacity="1" d=" M 235.14 68.28 C 238.38 68.24 241.63 68.22 244.87 68.23 C 244.12 76.15 244.57 84.11 244.40 92.05 C 244.47 94.12 244.19 96.67 246.05 98.10 C 248.41 98.58 250.83 98.34 253.22 98.36 C 253.73 96.95 254.39 95.54 254.36 94.01 C 254.47 85.41 254.57 76.81 254.11 68.23 C 257.31 68.23 260.52 68.26 263.73 68.28 C 261.55 78.52 263.25 89.11 262.68 99.50 C 260.44 101.50 258.54 103.91 256.05 105.61 C 251.45 105.98 246.82 105.65 242.21 105.65 C 240.05 103.35 237.82 101.11 235.53 98.94 C 236.41 88.77 236.82 78.39 235.14 68.28 Z" id="svg_16" fill-opacity="1"/>
<path fill="#ffffff" opacity="1" d=" M 272.13 68.23 C 279.27 68.28 286.41 68.24 293.56 68.27 C 295.68 70.47 298.20 72.37 299.80 75.02 C 300.68 78.21 300.01 81.54 299.72 84.77 C 297.25 86.91 294.95 89.26 292.80 91.73 C 288.73 91.68 284.65 91.66 280.59 92.11 C 280.57 96.68 280.96 101.24 281.87 105.71 C 278.63 105.73 275.38 105.73 272.14 105.72 C 272.83 93.24 272.79 80.71 272.13 68.23 M 280.52 74.55 C 280.46 78.14 280.48 81.74 280.59 85.33 C 284.05 84.92 288.24 85.61 290.93 82.88 C 292.23 80.59 292.08 76.98 289.64 75.47 C 286.78 74.18 283.56 74.55 280.52 74.55 Z" id="svg_17" fill-opacity="1"/>
</g></g></svg>